<svg width="51" height="54" viewBox="0 0 51 54" fill="none" xmlns="http://www.w3.org/2000/svg">
<rect x="2.16992" y="21.7373" width="39.1337" height="26.0892" fill="#3C50E0"/>
<path d="M23.2422 46.0938H7.8125C5.65859 46.0938 3.90625 44.3414 3.90625 42.1875V26.1719C3.90625 24.018 5.65859 22.2656 7.8125 22.2656H35.9375C38.0914 22.2656 39.8438 24.018 39.8438 26.1719V30.0781C39.8438 31.1568 40.7182 32.0312 41.7969 32.0312C42.8756 32.0312 43.75 31.1568 43.75 30.0781V26.1719C43.75 21.8641 40.2453 18.3594 35.9375 18.3594H33.5901V11.4713C33.5901 5.146 28.3331 0 21.8714 0C15.4097 0 10.1526 5.146 10.1526 11.4713V18.3594H7.8125C3.50469 18.3594 0 21.8641 0 26.1719V42.1875C0 46.4953 3.50469 50 7.8125 50H23.2422C24.3209 50 25.1953 49.1256 25.1953 48.0469C25.1953 46.9682 24.3209 46.0938 23.2422 46.0938ZM14.0589 11.4713C14.0589 7.2999 17.5636 3.90625 21.8714 3.90625C26.1792 3.90625 29.6839 7.2999 29.6839 11.4713V18.3594H14.0589V11.4713Z" fill="#3C50E0"/>
<path d="M41.5645 31.1948C42.7805 29.4958 45.1442 29.1056 46.8428 30.3218L46.998 30.439C48.5137 31.6446 48.8721 33.8084 47.8262 35.438L47.7168 35.5991L38.0508 49.1011L38.0488 49.104C38.0089 49.1596 37.9677 49.2137 37.9258 49.2661L37.9229 49.269C36.7246 50.7598 34.9465 51.6848 33.0381 51.812L33.0391 51.813C32.8868 51.8232 32.7352 51.8286 32.585 51.8286C30.8401 51.8286 29.146 51.1586 27.8711 49.9507C27.8574 49.9379 27.846 49.9274 27.8398 49.9214L27.8252 49.9067L21.5928 43.8247C20.0974 42.3655 20.0681 39.9703 21.5273 38.4751C22.9863 36.9805 25.3815 36.9512 26.877 38.4106L32.4814 43.8804L41.5645 31.1948Z" fill="#FF5570" stroke="white" stroke-width="3.6594"/>
<path d="M33.0098 28.7427C34.5947 28.7427 35.8798 30.0278 35.8799 31.6128C35.8799 33.1978 34.5948 34.4829 33.0098 34.4829C31.4248 34.4828 30.1396 33.1978 30.1396 31.6128C30.1397 30.0279 31.4249 28.7428 33.0098 28.7427Z" fill="#FF5570" stroke="white" stroke-width="1.83334"/>
<path d="M25.5859 28.7427C27.1709 28.7427 28.456 30.0278 28.4561 31.6128C28.4561 33.1978 27.171 34.4829 25.5859 34.4829C24.001 34.4828 22.7158 33.1978 22.7158 31.6128C22.7159 30.0279 24.001 28.7428 25.5859 28.7427Z" fill="#FF5570" stroke="white" stroke-width="1.83334"/>
<path d="M10.9355 28.7427C12.5205 28.7427 13.8056 30.0278 13.8057 31.6128C13.8057 33.1978 12.5206 34.4829 10.9355 34.4829C9.35059 34.4828 8.06543 33.1978 8.06543 31.6128C8.06551 30.0279 9.35064 28.7428 10.9355 28.7427Z" fill="#FF5570" stroke="white" stroke-width="1.83334"/>
<path d="M18.2598 28.7427C19.8447 28.7427 21.1298 30.0278 21.1299 31.6128C21.1299 33.1978 19.8448 34.4829 18.2598 34.4829C16.6748 34.4828 15.3896 33.1978 15.3896 31.6128C15.3897 30.0279 16.6749 28.7428 18.2598 28.7427Z" fill="#FF5570" stroke="white" stroke-width="1.83334"/>
</svg>
