<svg width="50" height="50" viewBox="0 0 50 50" fill="none" xmlns="http://www.w3.org/2000/svg">
<g clip-path="url(#clip0_4057_6218)">
<path d="M40.6339 37.2634C41.9856 36.2061 43.2441 35.2863 44.429 34.2805C46.1662 32.7851 47.7043 31.0733 49.0057 29.1871C50.3268 27.3031 50.3407 25.0371 48.9918 23.1698C43.9854 16.2397 37.2476 12.1383 28.7687 10.9518C24.4966 10.353 20.2954 10.7629 16.186 12.0744C16.0471 12.1352 15.892 12.1485 15.7449 12.112C15.5977 12.0756 15.4668 11.9915 15.3724 11.873C13.6925 10.1696 11.9903 8.48713 10.3034 6.79073C10.092 6.55886 9.81895 6.39175 9.51613 6.30887C9.21331 6.22598 8.89316 6.23071 8.59293 6.32252C8.30333 6.39693 8.04124 6.5529 7.83784 6.77187C7.63444 6.99084 7.4983 7.26359 7.44563 7.55766C7.30656 8.22871 7.55549 8.76917 8.0311 9.24294C10.5881 11.7855 13.1404 14.3326 15.6881 16.8844C24.4085 25.5975 33.1326 34.3073 41.8604 43.0139C42.1703 43.3333 42.5566 43.5686 42.9827 43.6975C43.3321 43.7847 43.7009 43.7485 44.0266 43.5951C44.3523 43.4416 44.6148 43.1803 44.7697 42.8555C45.1076 42.1998 44.9936 41.4662 44.4346 40.8993C43.322 39.7786 42.2053 38.6639 41.0844 37.5552C40.9453 37.4419 40.7942 37.3441 40.6339 37.2634ZM34.5052 30.9932C33.7598 30.2416 33.0631 29.5191 32.3413 28.8203C32.2287 28.7306 32.1474 28.6074 32.1092 28.4686C32.0709 28.3298 32.0777 28.1825 32.1286 28.0478C32.4381 26.9425 32.4687 25.7778 32.2176 24.6578C31.2983 20.505 27.2501 18.0167 23.117 19.0601C22.9516 19.1018 22.6929 19.1379 22.5983 19.049C21.7862 18.2779 21.0018 17.4776 20.1952 16.6746C23.747 14.742 29.0872 15.0074 32.7112 18.7753C36.2157 22.407 36.4062 27.5949 34.5052 30.9932Z" fill="#3C50E0"/>
<path d="M34.2148 40.1632L29.8662 35.8187C28.9178 36.1077 27.9791 36.4703 27.007 36.6759C21.3526 37.8749 15.5062 33.8972 14.491 28.2106C14.0703 26 14.3523 23.7133 15.2976 21.6709C15.3284 21.5849 15.3383 21.4928 15.3264 21.4022C15.3146 21.3116 15.2813 21.2251 15.2295 21.1499C13.2951 19.1881 11.3356 17.2444 9.372 15.2729C9.22598 15.3535 9.09386 15.4119 8.96592 15.4994C5.82737 17.5322 3.11398 20.1548 0.976547 23.2214C-0.316772 25.0651 -0.33485 27.3228 0.976547 29.1498C6.03023 36.1674 12.8403 40.3007 21.4277 41.4442C25.5607 41.9999 29.6243 41.5831 33.6099 40.3758C33.8129 40.3119 34.0076 40.2368 34.2148 40.1632Z" fill="#FF5570"/>
<path d="M17.9339 24.0498C17.1885 26.8424 17.7545 29.3696 19.8599 31.4384C21.9237 33.4654 24.4227 33.967 27.1387 33.2445L17.9339 24.0498Z" fill="#FF5570"/>
</g>
<defs>
<clipPath id="clip0_4057_6218">
<rect width="49.9764" height="37.5177" fill="white" transform="matrix(-1 0 0 1 50 6.25)"/>
</clipPath>
</defs>
</svg>
