<svg width="50" height="50" viewBox="0 0 50 50" fill="none" xmlns="http://www.w3.org/2000/svg">
<path d="M39.9831 18.8281H38.31V14.0169C38.3099 6.26299 32.0344 0 24.293 0C16.564 0 10.2761 6.28799 10.2761 14.0169V18.8281H8.60283C6.06484 18.8281 4 20.893 4 23.431V45.3972C4 47.9352 6.06484 50 8.60283 50H39.983C42.521 50 44.5858 47.9352 44.5858 45.3972V23.431C44.5859 20.893 42.5211 18.8281 39.9831 18.8281ZM13.2058 14.0169C13.7616 -0.672363 34.8428 -0.671387 35.3802 14.0171V18.8281H32.0338V14.0169C32.0338 9.74854 28.5612 6.27598 24.2929 6.27598C20.0245 6.27598 16.552 9.74854 16.552 14.0169V18.8281H13.2056L13.2058 14.0169ZM29.1042 14.0169V18.8281H19.4818V14.0169C19.7236 7.64267 28.8636 7.64512 29.1042 14.0169Z" fill="#3C50E0"/>
<circle cx="13" cy="35" r="4" fill="white"/>
<circle cx="24" cy="35" r="4" fill="white"/>
<circle cx="35" cy="35" r="4" fill="white"/>
<path fill-rule="evenodd" clip-rule="evenodd" d="M24.458 0C32.1993 0 38.4744 6.26283 38.4746 14.0166V18.75H35.5449V14.0176C35.0075 -0.670797 13.9272 -0.672352 13.3711 14.0166L13.3701 18.75H10.4414V14.0166C10.4416 6.28783 16.7291 0 24.458 0ZM24.458 6.27637C28.7262 6.27642 32.1991 9.74841 32.1992 14.0166V18.75H29.2695V14.0166C29.0287 7.6452 19.8885 7.64275 19.6465 14.0166V18.75H16.7168V14.0166C16.717 9.74838 20.1897 6.27637 24.458 6.27637Z" fill="#FF5670"/>
</svg>
