<svg width="50" height="50" viewBox="0 0 50 50" fill="none" xmlns="http://www.w3.org/2000/svg">
<path d="M45.4136 7.06722C45.4136 7.01456 45.361 6.96181 45.361 6.90916C45.361 6.85651 45.3083 6.80375 45.3083 6.7511C45.3083 6.69845 45.2557 6.64569 45.2029 6.59304C45.2029 6.54039 45.1503 6.54039 45.1503 6.48764C45.0449 6.32958 44.8868 6.17142 44.7287 6.06601C44.676 6.06601 44.676 6.01336 44.6233 6.01336C44.5706 5.96071 44.5178 5.96071 44.4652 5.90796C44.4125 5.90796 44.3598 5.8553 44.3071 5.8553C44.2545 5.8553 44.2017 5.80265 44.1491 5.80265C44.0437 5.80265 43.9383 5.75 43.8329 5.75H32.4501C31.5542 5.75 30.8692 6.43509 30.8692 7.33088C30.8692 8.22668 31.5543 8.91176 32.4501 8.91176H40.0912L20.2242 28.8314C19.5919 29.4637 19.5919 30.465 20.2242 31.0447C20.5405 31.3609 20.962 31.519 21.3309 31.519C21.6997 31.519 22.1213 31.3609 22.4375 31.0447L42.3045 11.1776V18.8188C42.3045 19.7147 42.9896 20.3996 43.8854 20.3996C44.7812 20.3996 45.4663 19.7146 45.4663 18.8188V7.38343C45.4664 7.27803 45.4664 7.17262 45.4136 7.06722Z" fill="#FF5570" stroke="#FF5570" stroke-width="1.04167"/>
<path d="M39.2371 44.25H7.26293C6.40554 44.25 5.75 43.5944 5.75 42.7371V10.7629C5.75 9.90554 6.40564 9.25 7.26293 9.25H25.5699C26.4273 9.25 27.0829 9.90564 27.0829 10.7629C27.0829 11.6202 26.4272 12.2759 25.5699 12.2759H8.77586V41.2241H37.7241V24.43C37.7241 23.5726 38.3798 22.9171 39.2371 22.9171C40.0944 22.9171 40.75 23.5727 40.75 24.43V42.737C40.7501 43.5944 40.0945 44.25 39.2371 44.25Z" fill="#3C50E0" stroke="#3C50E0" stroke-width="1.04"/>
</svg>
