<svg width="53" height="44" viewBox="0 0 53 44" fill="none" xmlns="http://www.w3.org/2000/svg">
<path opacity="0.7" d="M12.0195 9.11699C12.0195 4.99761 15.3589 1.6582 19.4783 1.6582H26.9371V41.4384H19.4783C15.359 41.4384 12.0195 38.099 12.0195 33.9796V9.11699Z" fill="#F6366A"/>
<path fill-rule="evenodd" clip-rule="evenodd" d="M43.7217 34.1855C43.7217 39.1058 39.7327 43.0946 34.8125 43.0947H18.2373C13.3169 43.0947 9.32812 39.1059 9.32812 34.1855V30.8701H12.2285V34.1855C12.2285 37.5039 14.9189 40.1943 18.2373 40.1943H34.8125C38.1307 40.1942 40.8203 37.5038 40.8203 34.1855V30.8701H43.7217V34.1855ZM34.8125 0C39.7327 0.000160808 43.7217 3.98891 43.7217 8.90918V12.2236H40.8203V8.90918C40.8203 5.59089 38.1308 2.90055 34.8125 2.90039H18.2373C14.9189 2.90039 12.2285 5.59079 12.2285 8.90918V12.2236H9.32812V8.90918C9.32812 3.98881 13.3169 0 18.2373 0H34.8125Z" fill="#F6366A"/>
<path d="M10.71 13.6929C11.7954 13.2661 12.8418 13.5699 13.6777 14.3022L19.8262 19.6909C20.3639 20.163 20.7906 20.8011 20.7891 21.5825C20.7875 22.3629 20.359 23.0001 19.8213 23.4722C17.7466 25.2932 15.6696 27.1121 13.5908 28.9292L13.5898 28.9312C12.87 29.5578 11.94 29.7594 11.1143 29.5913C10.2863 29.4227 9.49226 28.8588 9.18945 27.9116L9.18066 27.8843L9.17383 27.856C9.10253 27.5804 9.07115 27.2965 9.0791 27.0122V24.0298C7.41877 24.026 5.78814 24.0111 4.14844 24.0405C3.56025 24.0511 2.94638 23.9748 2.39355 23.6938C1.8115 23.3981 1.3832 22.9187 1.12109 22.2866L1.04297 22.0991L1.04199 21.897L1.03809 21.3013L1.03711 21.103L1.10938 20.9185C1.35106 20.2989 1.75462 19.8087 2.32715 19.4985C2.87365 19.2025 3.48763 19.1177 4.08496 19.1284C5.74532 19.158 7.39708 19.1417 9.07812 19.1382C9.08028 18.1279 9.0855 17.1326 9.07324 16.1313C9.06731 15.6518 9.16207 15.1433 9.45508 14.6841C9.75175 14.2192 10.192 13.898 10.71 13.6938V13.6929Z" fill="#0795FF" stroke="white" stroke-width="2.07189"/>
<path d="M34.3945 21.295C34.7205 20.4593 35.395 20.1459 36.3871 20.1638C38.2431 20.1968 40.1007 20.173 41.9574 20.173H42.4335V19.8127C42.4335 18.5811 42.4441 17.35 42.429 16.1184C42.4207 15.4473 42.6968 14.9383 43.4098 14.6573C44.0639 14.4001 44.709 14.5502 45.3156 15.0817C47.3663 16.8765 49.4155 18.6725 51.4631 20.4699C52.2779 21.1852 52.2764 21.9752 51.4586 22.6932C49.3843 24.514 47.3079 26.3327 45.2296 28.1495C44.2978 28.9607 42.8371 28.6605 42.4969 27.5961C42.447 27.4034 42.4262 27.2058 42.435 27.0084C42.4297 25.8098 42.435 24.6118 42.435 23.4132V23.0165C42.2675 23.0086 42.1242 22.996 41.9823 22.996C40.1384 22.996 38.2937 22.9716 36.4505 23.0046C35.4568 23.0225 34.7484 22.7342 34.3983 21.89L34.3945 21.295Z" fill="#061F6A"/>
<path d="M26.9375 3.41406L26.9375 40.016" stroke="#F6366A" stroke-width="2.90064" stroke-linecap="round"/>
</svg>
