<svg width="50" height="50" viewBox="0 0 50 50" fill="none" xmlns="http://www.w3.org/2000/svg">
<path d="M13.8889 37.9049C13.8889 34.0696 10.7798 30.9604 6.94445 30.9604C3.10914 30.9604 0 34.0696 0 37.9049C0 41.7402 3.10914 44.8494 6.94445 44.8494C10.7798 44.8494 13.8889 41.7402 13.8889 37.9049Z" fill="#3C50E0"/>
<path d="M50.0002 37.9049C50.0002 34.0696 46.8911 30.9604 43.0558 30.9604C39.2205 30.9604 36.1113 34.0696 36.1113 37.9049C36.1113 41.7402 39.2205 44.8494 43.0558 44.8494C46.8911 44.8494 50.0002 41.7402 50.0002 37.9049Z" fill="#FF5670"/>
<path d="M31.9455 37.9049C31.9455 34.0696 28.8364 30.9604 25.0011 30.9604C21.1658 30.9604 18.0566 34.0696 18.0566 37.9049C18.0566 41.7402 21.1658 44.8494 25.0011 44.8494C28.8364 44.8494 31.9455 41.7402 31.9455 37.9049Z" fill="#29C3FF"/>
<path opacity="0.2" d="M47.2756 2.0835H2.72436C1.21974 2.0835 0 2.9126 0 3.93535V8.56498C0 9.58773 1.21974 10.4168 2.72436 10.4168H47.2756C48.7803 10.4168 50 9.58773 50 8.56498V3.93535C50 2.9126 48.7803 2.0835 47.2756 2.0835Z" fill="#3C50E0"/>
<path d="M47.2756 14.5835H2.72436C1.21974 14.5835 0 15.4126 0 16.4353V21.065C0 22.0877 1.21974 22.9168 2.72436 22.9168H47.2756C48.7803 22.9168 50 22.0877 50 21.065V16.4353C50 15.4126 48.7803 14.5835 47.2756 14.5835Z" fill="#3C50E0"/>
</svg>
